<svg width="37" height="37" viewBox="0 0 37 37" fill="none" xmlns="http://www.w3.org/2000/svg">
<path d="M9.89999 30.5C8.24999 30.5 6.83749 29.9125 5.66249 28.7375C4.48749 27.5625 3.89999 26.15 3.89999 24.5V12.5C3.89999 10.85 4.48749 9.4375 5.66249 8.2625C6.83749 7.0875 8.24999 6.5 9.89999 6.5H27.9C29.55 6.5 30.9625 7.0875 32.1375 8.2625C33.3125 9.4375 33.9 10.85 33.9 12.5V24.5C33.9 26.15 33.3125 27.5625 32.1375 28.7375C30.9625 29.9125 29.55 30.5 27.9 30.5H9.89999ZM9.89999 12.5H27.9C28.45 12.5 28.975 12.5625 29.475 12.6875C29.975 12.8125 30.45 13.0125 30.9 13.2875V12.5C30.9 11.675 30.6065 10.969 30.0195 10.382C29.4325 9.795 28.726 9.501 27.9 9.5H9.89999C9.07499 9.5 8.36899 9.794 7.78199 10.382C7.19499 10.97 6.90099 11.676 6.89999 12.5V13.2875C7.34999 13.0125 7.82499 12.8125 8.32499 12.6875C8.82499 12.5625 9.34999 12.5 9.89999 12.5ZM7.12499 17.375L23.8125 21.425C24.0375 21.475 24.2625 21.475 24.4875 21.425C24.7125 21.375 24.925 21.275 25.125 21.125L30.3375 16.775C30.0625 16.4 29.7125 16.094 29.2875 15.857C28.8625 15.62 28.4 15.501 27.9 15.5H9.89999C9.24999 15.5 8.68149 15.669 8.19449 16.007C7.70749 16.345 7.35099 16.801 7.12499 17.375Z" fill="#F7F7F7"/>
</svg>
