<svg width="36" height="36" viewBox="0 0 36 36" fill="none" xmlns="http://www.w3.org/2000/svg">
<path d="M27.7778 30H8.22222C7.89807 30 7.58719 29.8736 7.35798 29.6485C7.12877 29.4235 7 29.1183 7 28.8V7.2C7 6.88174 7.12877 6.57652 7.35798 6.35147C7.58719 6.12643 7.89807 6 8.22222 6H27.7778C28.1019 6 28.4128 6.12643 28.642 6.35147C28.8712 6.57652 29 6.88174 29 7.2V28.8C29 29.1183 28.8712 29.4235 28.642 29.6485C28.4128 29.8736 28.1019 30 27.7778 30ZM13.1111 14.4V16.8H22.8889V14.4H13.1111ZM13.1111 19.2V21.6H22.8889V19.2H13.1111Z" fill="#060606"/>
</svg>
