<svg width="37" height="37" viewBox="0 0 37 37" fill="none" xmlns="http://www.w3.org/2000/svg">
<mask id="mask0_111_603" style="mask-type:luminance" maskUnits="userSpaceOnUse" x="3" y="6" width="31" height="25">
<path d="M21.7 6.5H15.7C10.0435 6.5 7.21449 6.5 5.45799 8.258C4.19199 9.5225 3.83799 11.3435 3.73899 14.375H33.661C33.562 11.3435 33.208 9.5225 31.942 8.258C30.1855 6.5 27.3565 6.5 21.7 6.5ZM15.7 30.5H21.7C27.3565 30.5 30.1855 30.5 31.942 28.742C33.6985 26.984 33.7 24.1565 33.7 18.5C33.7 17.838 33.699 17.213 33.697 16.625H3.70299C3.69999 17.213 3.69899 17.838 3.69999 18.5C3.69999 24.1565 3.69999 26.9855 5.45799 28.742C7.21599 30.4985 10.0435 30.5 15.7 30.5Z" fill="white"/>
<path fill-rule="evenodd" clip-rule="evenodd" d="M8.57498 24.5C8.57498 24.2016 8.69351 23.9155 8.90449 23.7045C9.11546 23.4935 9.40161 23.375 9.69998 23.375H15.7C15.9984 23.375 16.2845 23.4935 16.4955 23.7045C16.7065 23.9155 16.825 24.2016 16.825 24.5C16.825 24.7984 16.7065 25.0845 16.4955 25.2955C16.2845 25.5065 15.9984 25.625 15.7 25.625H9.69998C9.40161 25.625 9.11546 25.5065 8.90449 25.2955C8.69351 25.0845 8.57498 24.7984 8.57498 24.5ZM18.325 24.5C18.325 24.2016 18.4435 23.9155 18.6545 23.7045C18.8655 23.4935 19.1516 23.375 19.45 23.375H21.7C21.9984 23.375 22.2845 23.4935 22.4955 23.7045C22.7065 23.9155 22.825 24.2016 22.825 24.5C22.825 24.7984 22.7065 25.0845 22.4955 25.2955C22.2845 25.5065 21.9984 25.625 21.7 25.625H19.45C19.1516 25.625 18.8655 25.5065 18.6545 25.2955C18.4435 25.0845 18.325 24.7984 18.325 24.5Z" fill="black"/>
</mask>
<g mask="url(#mask0_111_603)">
<path d="M0.699982 0.5H36.7V36.5H0.699982V0.5Z" fill="#F7F7F7"/>
</g>
</svg>
