<svg width="37" height="37" viewBox="0 0 37 37" fill="none" xmlns="http://www.w3.org/2000/svg">
<path d="M6.29999 29V15.5C6.29999 15.025 6.40649 14.575 6.61949 14.15C6.83249 13.725 7.12599 13.375 7.49999 13.1L16.5 6.35C17.025 5.95 17.625 5.75 18.3 5.75C18.975 5.75 19.575 5.95 20.1 6.35L29.1 13.1C29.475 13.375 29.769 13.725 29.982 14.15C30.195 14.575 30.301 15.025 30.3 15.5V29C30.3 29.825 30.006 30.5315 29.418 31.1195C28.83 31.7075 28.124 32.001 27.3 32H22.8C22.375 32 22.019 31.856 21.732 31.568C21.445 31.28 21.301 30.924 21.3 30.5V23C21.3 22.575 21.156 22.219 20.868 21.932C20.58 21.645 20.224 21.501 19.8 21.5H16.8C16.375 21.5 16.019 21.644 15.732 21.932C15.445 22.22 15.301 22.576 15.3 23V30.5C15.3 30.925 15.156 31.2815 14.868 31.5695C14.58 31.8575 14.224 32.001 13.8 32H9.29999C8.47499 32 7.76899 31.7065 7.18199 31.1195C6.59499 30.5325 6.30099 29.826 6.29999 29Z" fill="#0F559B"/>
</svg>
