<svg width="36" height="36" viewBox="0 0 36 36" fill="none" xmlns="http://www.w3.org/2000/svg">
<path d="M25.08 24.468C24.768 23.508 23.868 22.8 22.8 22.8H21.6V19.2C21.6 18.8817 21.4736 18.5765 21.2485 18.3515C21.0235 18.1264 20.7183 18 20.4 18H13.2V15.6H15.6C15.9183 15.6 16.2235 15.4736 16.4485 15.2485C16.6736 15.0235 16.8 14.7183 16.8 14.4V12H19.2C19.8365 12 20.447 11.7471 20.8971 11.2971C21.3471 10.847 21.6 10.2365 21.6 9.6V9.108C23.0358 9.68684 24.3099 10.605 25.3133 11.7838C26.3167 12.9626 27.0196 14.3671 27.3616 15.8769C27.7037 17.3866 27.6748 18.9569 27.2774 20.453C26.8801 21.9492 26.1261 23.3269 25.08 24.468ZM16.8 27.516C12.06 26.928 8.4 22.896 8.4 18C8.4 17.256 8.496 16.536 8.652 15.852L14.4 21.6V22.8C14.4 23.4365 14.6529 24.047 15.1029 24.4971C15.553 24.9471 16.1635 25.2 16.8 25.2M18 6C16.4241 6 14.8637 6.31039 13.4078 6.91345C11.9519 7.5165 10.629 8.40042 9.51472 9.51472C7.26428 11.7652 6 14.8174 6 18C6 21.1826 7.26428 24.2348 9.51472 26.4853C10.629 27.5996 11.9519 28.4835 13.4078 29.0866C14.8637 29.6896 16.4241 30 18 30C21.1826 30 24.2348 28.7357 26.4853 26.4853C28.7357 24.2348 30 21.1826 30 18C30 16.4241 29.6896 14.8637 29.0866 13.4078C28.4835 11.9519 27.5996 10.629 26.4853 9.51472C25.371 8.40042 24.0481 7.5165 22.5922 6.91345C21.1363 6.31039 19.5759 6 18 6Z" fill="#060606"/>
</svg>
