<svg width="36" height="36" viewBox="0 0 36 36" fill="none" xmlns="http://www.w3.org/2000/svg">
<path d="M23.6634 11.0783C24.164 11.0783 24.6441 11.2772 24.9981 11.6312C25.3521 11.9852 25.551 12.4653 25.551 12.966V23.555L26.7767 22.328C26.952 22.1526 27.1601 22.0135 27.3892 21.9186C27.6183 21.8237 27.8638 21.7749 28.1118 21.7749C28.3598 21.7749 28.6053 21.8237 28.8344 21.9186C29.0635 22.0135 29.2716 22.1526 29.447 22.328C29.6223 22.5033 29.7614 22.7115 29.8563 22.9406C29.9512 23.1697 30 23.4153 30 23.6632C30 23.9112 29.9512 24.1568 29.8563 24.3859C29.7614 24.615 29.6223 24.8232 29.447 24.9985L24.9973 29.4473C24.6433 29.8012 24.1633 30 23.6628 30C23.1622 30 22.6822 29.8012 22.3282 29.4473L17.8786 24.9985C17.7032 24.8232 17.5641 24.615 17.4693 24.3859C17.3744 24.1568 17.3255 23.9112 17.3255 23.6632C17.3255 23.4153 17.3744 23.1697 17.4693 22.9406C17.5641 22.7115 17.7032 22.5033 17.8786 22.328C18.0539 22.1526 18.2621 22.0135 18.4911 21.9186C18.7202 21.8237 18.9658 21.7749 19.2137 21.7749C19.4617 21.7749 19.7072 21.8237 19.9363 21.9186C20.1654 22.0135 20.3735 22.1526 20.5489 22.328L21.7758 23.555V12.966C21.7758 12.4653 21.9747 11.9852 22.3287 11.6312C22.6827 11.2772 23.1628 11.0783 23.6634 11.0783ZM13.6718 6.55271L18.1214 11.0015C18.2968 11.1768 18.4359 11.385 18.5307 11.6141C18.6256 11.8432 18.6745 12.0888 18.6745 12.3368C18.6745 12.5847 18.6256 12.8303 18.5307 13.0594C18.4359 13.2885 18.2968 13.4967 18.1214 13.672C17.9461 13.8474 17.7379 13.9865 17.5089 14.0814C17.2798 14.1763 17.0342 14.2251 16.7863 14.2251C16.5383 14.2251 16.2928 14.1763 16.0637 14.0814C15.8346 13.9865 15.6265 13.8474 15.4511 13.672L14.2255 12.445V23.034C14.2255 23.5347 14.0266 24.0148 13.6726 24.3688C13.3186 24.7228 12.8385 24.9217 12.3379 24.9217C11.8372 24.9217 11.3571 24.7228 11.0031 24.3688C10.6491 24.0148 10.4503 23.5347 10.4503 23.034V12.445L9.22335 13.672C9.04801 13.8474 8.83986 13.9865 8.61077 14.0814C8.38169 14.1763 8.13615 14.2251 7.88819 14.2251C7.64023 14.2251 7.3947 14.1763 7.16561 14.0814C6.93653 13.9865 6.72837 13.8474 6.55304 13.672C6.3777 13.4967 6.23862 13.2885 6.14373 13.0594C6.04884 12.8303 6 12.5847 6 12.3368C6 12.0888 6.04884 11.8432 6.14373 11.6141C6.23862 11.385 6.3777 11.1768 6.55304 11.0015L11.0027 6.55271C11.3567 6.19881 11.8367 6 12.3372 6C12.8378 6 13.3178 6.19881 13.6718 6.55271Z" fill="#060606"/>
</svg>
