<svg width="36" height="36" viewBox="0 0 36 36" fill="none" xmlns="http://www.w3.org/2000/svg">
<path d="M19.1617 6.00006C19.2309 6.00006 19.3027 6.02346 19.3209 6.0528C19.339 6.09584 19.35 8.17424 19.3463 10.6837C19.3409 14.3916 19.3524 15.2596 19.4049 15.2628C19.4405 15.2637 20.5311 15.2626 21.8277 15.2598C23.5553 15.257 24.2031 15.271 24.2555 15.3145C24.3536 15.3956 24.3442 15.626 24.2369 15.7696C24.1033 15.9523 17.352 29.4853 17.3033 29.6671C17.2841 29.7432 17.2119 29.8519 17.1422 29.9063C16.988 30.0277 16.9581 30.0291 16.8512 29.9219C16.7894 29.8601 16.7749 29.7876 16.7965 29.6524C16.8292 29.4404 16.8417 20.8422 16.8102 20.7608C16.7983 20.7501 15.6549 20.7426 14.2691 20.7442C11.8466 20.7479 11.7468 20.7439 11.6979 20.6524C11.6444 20.5522 11.6964 20.2865 11.7916 20.171C11.841 20.1118 11.9802 19.8437 13.1285 17.6006C13.7942 16.2996 14.4619 14.9989 15.1305 13.6993C15.3789 13.2158 15.8028 12.3889 16.0719 11.8624C16.3857 11.2498 16.7008 10.6372 17.0162 10.0255C18.5334 7.07968 18.8464 6.46078 18.9596 6.18854C19.0193 6.04258 19.0647 6.0002 19.1617 6.00006Z" fill="#060606"/>
</svg>
