<svg width="36" height="36" viewBox="0 0 36 36" fill="none" xmlns="http://www.w3.org/2000/svg">
<path d="M11.5632 25.6367C13.3302 27.4037 15.6551 28.5032 18.142 28.748C20.6288 28.9929 23.1236 28.3677 25.2011 26.9792C27.2787 25.5907 28.8105 23.5248 29.5355 21.1334C30.2605 18.7421 30.1338 16.1733 29.177 13.8649C28.2203 11.5564 26.4926 9.65122 24.2885 8.47387C22.0844 7.29652 19.5403 6.91991 17.0896 7.4082C14.6389 7.8965 12.4334 9.2195 10.8489 11.1517C9.26439 13.084 8.39894 15.5059 8.40003 18.0047V20.3999" stroke="#060606" stroke-width="2.5" stroke-linecap="round" stroke-linejoin="round"/>
<path d="M6 17.9999L8.4 20.3999L10.8 17.9999M18 13.1999V19.1999H24" stroke="#060606" stroke-width="2.5" stroke-linecap="round" stroke-linejoin="round"/>
</svg>
