<svg width="37" height="36" viewBox="0 0 37 36" fill="none" xmlns="http://www.w3.org/2000/svg">
<path d="M7.41248 34.875H5.16248C4.71492 34.875 4.2857 34.6972 3.96923 34.3807C3.65277 34.0643 3.47498 33.6351 3.47498 33.1875V23.0625C3.47498 22.6149 3.65277 22.1857 3.96923 21.8693C4.2857 21.5528 4.71492 21.375 5.16248 21.375H7.41248C7.86003 21.375 8.28925 21.5528 8.60572 21.8693C8.92219 22.1857 9.09998 22.6149 9.09998 23.0625V33.1875C9.09998 33.6351 8.92219 34.0643 8.60572 34.3807C8.28925 34.6972 7.86003 34.875 7.41248 34.875ZM23.1625 34.875H20.9125C20.4649 34.875 20.0357 34.6972 19.7192 34.3807C19.4028 34.0643 19.225 33.6351 19.225 33.1875V16.3125C19.225 15.8649 19.4028 15.4357 19.7192 15.1193C20.0357 14.8028 20.4649 14.625 20.9125 14.625H23.1625C23.61 14.625 24.0392 14.8028 24.3557 15.1193C24.6722 15.4357 24.85 15.8649 24.85 16.3125V33.1875C24.85 33.6351 24.6722 34.0643 24.3557 34.3807C24.0392 34.6972 23.61 34.875 23.1625 34.875ZM31.0375 34.875H28.7875C28.3399 34.875 27.9107 34.6972 27.5942 34.3807C27.2778 34.0643 27.1 33.6351 27.1 33.1875V8.4375C27.1 7.98995 27.2778 7.56072 27.5942 7.24426C27.9107 6.92779 28.3399 6.75 28.7875 6.75H31.0375C31.485 6.75 31.9142 6.92779 32.2307 7.24426C32.5472 7.56072 32.725 7.98995 32.725 8.4375V33.1875C32.725 33.6351 32.5472 34.0643 32.2307 34.3807C31.9142 34.6972 31.485 34.875 31.0375 34.875ZM15.2875 34.875H13.0375C12.5899 34.875 12.1607 34.6972 11.8442 34.3807C11.5278 34.0643 11.35 33.6351 11.35 33.1875V2.8125C11.35 2.36495 11.5278 1.93572 11.8442 1.61926C12.1607 1.30279 12.5899 1.125 13.0375 1.125H15.2875C15.735 1.125 16.1643 1.30279 16.4807 1.61926C16.7972 1.93572 16.975 2.36495 16.975 2.8125V33.1875C16.975 33.6351 16.7972 34.0643 16.4807 34.3807C16.1643 34.6972 15.735 34.875 15.2875 34.875Z" fill="#F7F7F7"/>
</svg>
