<svg width="37" height="37" viewBox="0 0 37 37" fill="none" xmlns="http://www.w3.org/2000/svg">
<g clip-path="url(#clip0_111_593)">
<path d="M25.244 10.25C25.8407 10.25 26.413 10.487 26.835 10.909C27.257 11.3309 27.494 11.9032 27.494 12.5V25.121L28.955 23.6585C29.164 23.4495 29.4121 23.2837 29.6852 23.1706C29.9583 23.0575 30.2509 22.9993 30.5465 22.9993C30.8421 22.9993 31.1348 23.0575 31.4078 23.1706C31.6809 23.2837 31.929 23.4495 32.138 23.6585C32.347 23.8675 32.5128 24.1156 32.6259 24.3887C32.739 24.6617 32.7972 24.9544 32.7972 25.25C32.7972 25.5455 32.739 25.8382 32.6259 26.1113C32.5128 26.3844 32.347 26.6325 32.138 26.8415L26.834 32.144C26.4121 32.5658 25.8399 32.8027 25.2433 32.8027C24.6466 32.8027 24.0744 32.5658 23.6525 32.144L18.3485 26.8415C18.1395 26.6325 17.9737 26.3844 17.8606 26.1113C17.7475 25.8382 17.6893 25.5455 17.6893 25.25C17.6893 24.9544 17.7475 24.6617 17.8606 24.3887C17.9737 24.1156 18.1395 23.8675 18.3485 23.6585C18.5575 23.4495 18.8056 23.2837 19.0787 23.1706C19.3518 23.0575 19.6444 22.9993 19.94 22.9993C20.2356 22.9993 20.5282 23.0575 20.8013 23.1706C21.0744 23.2837 21.3225 23.4495 21.5315 23.6585L22.994 25.121V12.5C22.994 11.9032 23.2311 11.3309 23.653 10.909C24.075 10.487 24.6473 10.25 25.244 10.25ZM13.334 4.85597L18.638 10.1585C18.847 10.3675 19.0128 10.6156 19.1259 10.8887C19.239 11.1617 19.2972 11.4544 19.2972 11.75C19.2972 12.0455 19.239 12.3382 19.1259 12.6113C19.0128 12.8844 18.847 13.1325 18.638 13.3415C18.429 13.5505 18.1809 13.7163 17.9078 13.8294C17.6348 13.9425 17.3421 14.0007 17.0465 14.0007C16.7509 14.0007 16.4583 13.9425 16.1852 13.8294C15.9121 13.7163 15.664 13.5505 15.455 13.3415L13.994 11.879V24.5C13.994 25.0967 13.757 25.669 13.335 26.091C12.913 26.5129 12.3407 26.75 11.744 26.75C11.1473 26.75 10.575 26.5129 10.153 26.091C9.73106 25.669 9.49401 25.0967 9.49401 24.5V11.879L8.03151 13.3415C7.82251 13.5505 7.57439 13.7163 7.30132 13.8294C7.02825 13.9425 6.73558 14.0007 6.44001 14.0007C6.14444 14.0007 5.85176 13.9425 5.57869 13.8294C5.30562 13.7163 5.0575 13.5505 4.84851 13.3415C4.63951 13.1325 4.47372 12.8844 4.36061 12.6113C4.2475 12.3382 4.18929 12.0455 4.18929 11.75C4.18929 11.4544 4.2475 11.1617 4.36061 10.8887C4.47372 10.6156 4.63951 10.3675 4.84851 10.1585L10.1525 4.85597C10.5744 4.43416 11.1466 4.1972 11.7433 4.1972C12.3399 4.1972 12.9121 4.43416 13.334 4.85597Z" fill="#F7F7F7"/>
</g>
<defs>
<clipPath id="clip0_111_593">
<rect width="36" height="36" fill="white" transform="translate(0.5 0.5)"/>
</clipPath>
</defs>
</svg>
